<?xml version="1.0" encoding="UTF-8"?>
<svg xmlns="http://www.w3.org/2000/svg" xmlns:xlink="http://www.w3.org/1999/xlink" viewBox="0 0 24 24" width="15px" height="15px">
<g id="surface241988905">
<path style=" stroke:none;fill-rule:nonzero;fill:rgb(100%,100%,100%);fill-opacity:1;" d="M 12 2 C 6.476562 2 2 6.476562 2 12 C 2 17.523438 6.476562 22 12 22 C 17.523438 22 22 17.523438 22 12 C 22 6.476562 17.523438 2 12 2 Z M 12 4.75 C 13.796875 4.75 15.25 6.203125 15.25 8 C 15.25 9.796875 13.796875 11.25 12 11.25 C 10.203125 11.25 8.75 9.796875 8.75 8 C 8.75 6.203125 10.203125 4.75 12 4.75 Z M 12 20 C 9.230469 20 6.789062 18.59375 5.355469 16.453125 C 6.476562 14.824219 10.046875 14 12 14 C 13.953125 14 17.523438 14.824219 18.644531 16.453125 C 17.210938 18.59375 14.769531 20 12 20 Z M 12 20 "/>
</g>
</svg>
