<svg xmlns="http://www.w3.org/2000/svg"  viewBox="0 0 64 64" width="64px" height="64px" baseProfile="basic"><ellipse cx="32" cy="33.5" fill="#fd3c4f" rx="24" ry="21.5"/><path d="M55.357,28.565C52.902,28.883,51,30.958,51,33.5C51,42.598,42.477,50,32,50 c-2.604,0-4.718,1.997-4.954,4.539C28.645,54.84,30.302,55,32,55c13.255,0,24-9.626,24-21.5C56,31.801,55.773,30.15,55.357,28.565z" opacity=".15"/><path fill="#fff" d="M24.1,18.493c2.41-0.962,3.632-3.586,2.925-6.028C16.158,14.518,8,23.155,8,33.5 c0,1.699,0.227,3.35,0.643,4.935C11.098,38.117,13,36.042,13,33.5C13,27.074,17.356,21.184,24.1,18.493z" opacity=".3"/><path fill="none" stroke="#fff" stroke-linecap="round" stroke-miterlimit="10" stroke-width="3" d="M12.317,30.385	c0.433-2.098,1.294-4.067,2.501-5.835c0.242-0.355,0.499-0.702,0.768-1.04"/><ellipse cx="32" cy="61" opacity=".3" rx="19" ry="3"/><path fill="#98c900" d="M44.794,8.386c-2.129-0.119-6.178-0.1-10.617,1.189l-0.51-3.826C33.571,5.034,32.961,4.5,32.24,4.5	h-0.48c-0.721,0-1.331,0.534-1.426,1.249l-0.51,3.826c-4.438-1.288-8.487-1.308-10.616-1.189c-0.845,0.047-1.466,0.803-1.347,1.641	l0.008,0.059c0.082,0.577,0.498,1.045,1.062,1.189c1.341,0.342,4.004,1.062,7.049,2.103c-2.965,1.96-5.126,4.104-6.29,5.406	c-0.564,0.63-0.469,1.603,0.207,2.112l0.127,0.096c0.471,0.354,1.105,0.389,1.608,0.082c1.408-0.859,4.481-2.664,8.06-4.341	l0.665,5.987c0.081,0.729,0.697,1.28,1.43,1.28h0.424c0.733,0,1.349-0.551,1.43-1.28l0.665-5.985	c3.568,1.678,6.626,3.489,8.03,4.354c0.504,0.31,1.14,0.277,1.613-0.079l0.152-0.115c0.676-0.508,0.77-1.481,0.207-2.112	c-1.166-1.304-3.33-3.451-6.3-5.413c3.051-1.055,5.736-1.803,7.081-2.158c0.559-0.148,0.969-0.615,1.05-1.188	C46.26,9.188,45.638,8.433,44.794,8.386z"/></svg>