<svg xmlns="http://www.w3.org/2000/svg"  viewBox="0 0 48 48" width="48px" height="48px"><path fill="#FFC107" d="M44,13H4c-2.2,0-4,1.8-4,4v16c0,2.2,1.8,4,4,4h40c2.2,0,4-1.8,4-4V17C48,14.8,46.2,13,44,13z"/><path fill="#263238" d="M28.1 18h-3.7v13.1h3.7c2 0 2.8-.4 3.3-.7.6-.4.9-1.1.9-1.8v-7.9c0-.9-.4-1.7-.9-2C30.6 18.2 30.3 18 28.1 18zM28.8 28.3c0 .6-.7.6-1.3.6V20c.6 0 1.3 0 1.3.6V28.3zM33.8 18v13.3h2.8c0 0 .2-.9.4-.7.4 0 1.5.6 2.2.6s1.1 0 1.5-.2c.6-.4.7-.7.7-1.3v-7.8c0-1.1-1.1-1.8-2-1.8s-1.8.6-2.2.9v-3H33.8zM37.4 22.2c0-.4 0-.6.4-.6.2 0 .4.2.4.6v6.6c0 .4 0 .6-.4.6-.2 0-.4-.2-.4-.6V22.2zM22.7 31.3L22.7 18 18.3 18 17.5 24.3 16.4 18 12.4 18 12.4 31.3 15.3 31.3 15.3 23.9 16.6 31.3 18.6 31.3 19.9 23.9 19.9 31.3zM7.6 18H10.7V31.3H7.6z"/></svg>